<svg viewBox="0 0 1024 1066.744" xmlns="http://www.w3.org/2000/svg"><path d="M0 160.97h1024v758.69H0zm977.455 46.545H46.545v665.6h930.91zm-665.6 488.727H176.873v-46.545h134.982c.43.016.938.026 1.447.026 11.176 0 21.295-4.528 28.622-11.85 7.32-7.326 11.848-17.445 11.848-28.62 0-.51-.01-1.016-.028-1.52l.002.073c.016-.43.026-.938.026-1.447 0-11.177-4.528-21.296-11.85-28.623-7.326-7.32-17.445-11.848-28.62-11.848-.51 0-1.016.008-1.52.027l.073-.002H265.31c-.58.014-1.265.022-1.95.022-23.89 0-45.514-9.685-61.165-25.342-15.658-15.65-25.343-37.277-25.343-61.165 0-.686.008-1.37.024-2.053l-.002.1c-.014-.58-.022-1.264-.022-1.95 0-23.888 9.685-45.513 25.342-61.164 15.65-15.658 37.277-25.343 61.165-25.343.685 0 1.37.008 2.052.024l-.1-.002h139.635v46.545H265.31c-.43-.016-.937-.026-1.446-.026-11.176 0-21.295 4.53-28.622 11.85-7.32 7.327-11.848 17.446-11.848 28.622 0 .51.01 1.015.028 1.52l-.002-.074c-.016.43-.026.938-.026 1.447 0 11.176 4.528 21.295 11.85 28.622 7.326 7.32 17.445 11.848 28.62 11.848.51 0 1.016-.01 1.52-.028l-.073.002h46.546c.58-.015 1.265-.023 1.95-.023 23.89 0 45.514 9.685 61.165 25.342 15.66 15.65 25.344 37.276 25.344 61.164 0 .686-.008 1.37-.024 2.053l.002-.1c.014.58.022 1.264.022 1.95 0 23.888-9.685 45.513-25.342 61.164-15.65 15.66-37.277 25.344-61.165 25.344-.686 0-1.37-.008-2.053-.024l.1.002zm0-269.964H265.31V291.296h46.545zm0 358.4H265.31V649.696h46.545zm535.272-400.29H535.272v-46.545h311.855zm0 176.872H535.272v-46.545h311.855zm0 176.873H535.272v-46.545h311.855z"/></svg>